<?xml version="1.0" encoding="UTF-8"?>
<svg version="1.1" xmlns="http://www.w3.org/2000/svg" width="512" height="512">
<path d="M0,0 L5,1 L12,7 L23,28 L24,31 L29,36 L35,43 L43,62 L46,76 L48,94 L48,104 L46,121 L52,133 L54,142 L54,156 L52,166 L59,167 L62,170 L74,172 L80,177 L88,179 L94,184 L98,193 L102,200 L103,211 L107,217 L108,227 L103,237 L102,238 L100,248 L98,251 L96,260 L89,266 L79,267 L78,274 L70,290 L60,301 L46,308 L40,308 L43,319 L46,345 L51,401 L52,414 L-223,414 L-223,376 L-219,324 L-218,309 L-227,304 L-238,295 L-252,281 L-262,267 L-267,257 L-270,248 L-271,242 L-271,228 L-279,227 L-284,223 L-289,213 L-290,205 L-288,196 L-284,189 L-280,185 L-278,185 L-278,179 L-272,171 L-270,165 L-265,159 L-261,157 L-255,157 L-254,154 L-248,150 L-239,149 L-235,148 L-234,135 L-230,123 L-228,118 L-227,94 L-223,78 L-217,66 L-210,57 L-206,52 L-195,43 L-191,40 L-189,40 L-186,30 L-181,18 L-173,9 L-171,8 L-162,8 L-156,12 L-148,19 L-142,26 L-97,26 L-68,25 L-30,23 L-28,23 L-21,14 L-14,7 L-4,1 Z " fill="#9EA6B8" transform="translate(349,98)"/>
<path d="M0,0 L5,1 L12,7 L23,28 L24,31 L29,36 L35,43 L43,62 L46,76 L48,94 L48,104 L46,121 L52,133 L54,142 L54,156 L52,166 L59,167 L62,170 L74,172 L80,177 L88,179 L94,184 L98,193 L102,200 L103,211 L107,217 L108,227 L103,237 L102,238 L100,248 L98,251 L96,260 L89,266 L79,267 L78,274 L70,290 L60,301 L46,308 L40,308 L43,319 L46,345 L51,401 L52,414 L42,414 L38,372 L35,337 L31,308 L31,303 L35,300 L47,297 L57,290 L66,276 L70,264 L63,264 L58,261 L55,259 L47,259 L45,263 L39,268 L31,272 L22,272 L19,270 L8,269 L2,266 L-5,260 L-13,255 L-17,247 L-17,233 L-18,231 L-18,216 L-17,209 L-17,200 L-14,193 L-8,187 L-4,186 L1,180 L7,177 L16,176 L25,169 L31,167 L41,168 L43,159 L43,139 L39,130 L36,124 L36,114 L37,108 L37,85 L33,65 L27,50 L21,41 L15,36 L7,20 L2,11 L-3,12 L-12,19 L-19,26 L-23,32 L-25,33 L-65,35 L-82,35 L-80,39 L-80,49 L-84,57 L-93,67 L-97,75 L-98,78 L-99,92 L-100,95 L-91,92 L-82,92 L-74,95 L-69,100 L-68,106 L-71,112 L-77,116 L-83,117 L-82,128 L-82,151 L-68,150 L-52,150 L-50,152 L-51,157 L-54,159 L-77,160 L-122,159 L-125,157 L-125,152 L-124,151 L-117,150 L-93,150 L-91,151 L-91,116 L-97,115 L-102,112 L-103,110 L-105,110 L-109,116 L-118,126 L-125,132 L-139,139 L-143,140 L-164,140 L-179,135 L-198,124 L-209,117 L-218,116 L-219,123 L-224,138 L-225,148 L-218,149 L-210,149 L-204,152 L-197,154 L-190,158 L-186,164 L-185,167 L-180,171 L-177,177 L-176,184 L-172,189 L-168,202 L-168,213 L-172,221 L-174,231 L-178,235 L-185,238 L-187,240 L-194,242 L-198,245 L-205,246 L-208,248 L-214,248 L-220,244 L-228,242 L-231,240 L-240,237 L-245,232 L-248,221 L-251,221 L-254,229 L-256,230 L-263,230 L-261,240 L-257,254 L-253,262 L-245,273 L-234,285 L-222,295 L-213,300 L-208,302 L-207,307 L-211,352 L-213,382 L-214,414 L-223,414 L-223,376 L-219,324 L-218,309 L-227,304 L-238,295 L-252,281 L-262,267 L-267,257 L-270,248 L-271,242 L-271,228 L-279,227 L-284,223 L-289,213 L-290,205 L-288,196 L-284,189 L-280,185 L-278,185 L-278,179 L-272,171 L-270,165 L-265,159 L-261,157 L-255,157 L-254,154 L-248,150 L-239,149 L-235,148 L-234,135 L-230,123 L-228,118 L-227,94 L-223,78 L-217,66 L-210,57 L-206,52 L-195,43 L-191,40 L-189,40 L-186,30 L-181,18 L-173,9 L-171,8 L-162,8 L-156,12 L-148,19 L-142,26 L-97,26 L-68,25 L-30,23 L-28,23 L-21,14 L-14,7 L-4,1 Z " fill="#010101" transform="translate(349,98)"/>
<path d="M0,0 L32,0 L60,2 L80,6 L92,12 L97,18 L101,26 L104,39 L107,62 L110,103 L110,122 L-95,122 L-95,102 L-94,77 L-91,58 L-86,41 L-79,28 L-72,20 L-61,13 L-40,6 L-19,2 Z " fill="#C2CADB" transform="translate(255,390)"/>
<path d="M0,0 L5,1 L19,15 L19,17 L22,18 L86,18 L88,22 L88,32 L84,40 L75,50 L71,58 L70,61 L69,75 L68,78 L77,75 L86,75 L94,78 L99,83 L100,89 L97,95 L91,99 L85,100 L86,111 L86,134 L100,133 L116,133 L118,135 L117,140 L114,142 L91,143 L46,142 L43,140 L43,135 L44,134 L51,133 L75,133 L77,134 L77,99 L71,98 L66,95 L65,93 L63,93 L59,99 L50,109 L43,115 L29,122 L25,123 L4,123 L-11,118 L-30,107 L-41,100 L-50,99 L-50,79 L-46,64 L-39,51 L-30,41 L-21,32 L-15,28 L-8,13 L-3,3 Z " fill="#56588B" transform="translate(181,115)"/>
<path d="M0,0 L7,0 L13,5 L23,5 L28,10 L29,11 L39,13 L43,21 L43,23 L46,24 L47,26 L47,37 L51,44 L52,45 L52,52 L47,58 L46,69 L42,74 L42,80 L40,82 L36,83 L28,83 L24,81 L19,81 L13,76 L4,75 L-4,79 L-13,86 L-17,88 L-22,88 L-26,86 L-38,85 L-44,80 L-47,77 L-53,73 L-54,71 L-54,56 L-56,52 L-56,43 L-55,35 L-55,27 L-51,21 L-44,19 L-40,13 L-38,11 L-28,11 L-21,4 L-14,1 L-3,1 Z " fill="#FEE96D" transform="translate(395,273)"/>
<path d="M0,0 L8,1 L14,2 L19,1 L24,6 L29,7 L34,7 L37,10 L40,17 L46,21 L47,30 L49,34 L52,37 L55,49 L55,56 L50,62 L50,71 L43,73 L41,76 L35,76 L30,80 L24,80 L21,83 L16,81 L14,79 L7,77 L3,73 L-4,74 L-6,69 L-7,63 L-11,57 L-13,56 L-21,56 L-26,61 L-28,65 L-33,64 L-42,63 L-47,58 L-48,56 L-48,45 L-44,38 L-38,34 L-37,29 L-36,24 L-31,19 L-31,13 L-27,10 L-20,10 L-15,5 L-12,3 L-10,5 L-4,4 Z " fill="#FDE96D" transform="translate(117,254)"/>
<path d="M0,0 L9,0 L17,3 L22,8 L23,14 L20,20 L14,24 L8,25 L9,36 L9,59 L23,58 L39,58 L41,60 L40,65 L37,67 L14,68 L-31,67 L-34,65 L-34,60 L-33,59 L-26,58 L-2,58 L0,59 L0,24 L-6,23 L-11,20 L-14,14 L-13,8 L-9,3 Z " fill="#010102" transform="translate(258,190)"/>
<path d="M0,0 L33,0 L33,14 L32,17 L31,28 L12,27 L-5,24 L-13,20 L-17,14 L-16,8 L-11,3 Z " fill="#57598B" transform="translate(300,297)"/>
<path d="M0,0 L9,0 L10,2 L1,3 L-7,8 L-10,12 L-15,14 L-20,20 L-28,20 L-36,16 L-37,9 L-32,4 L-27,2 L-19,1 Z " fill="#57598B" transform="translate(355,273)"/>
<path d="M0,0 L6,0 L9,3 L10,9 L7,13 L-1,13 L-4,9 L-3,2 Z " fill="#020203" transform="translate(311,182)"/>
<path d="M0,0 L6,0 L9,3 L9,10 L6,13 L0,13 L-3,10 L-4,5 Z " fill="#010102" transform="translate(208,181)"/>
<path d="M0,0 L7,1 L12,7 L12,12 L10,14 L5,13 L0,8 L-2,6 L-1,1 Z " fill="#050502" transform="translate(107,300)"/>
<path d="M0,0 L5,1 L11,6 L11,12 L10,13 L4,13 L-2,8 L-3,3 Z " fill="#000000" transform="translate(69,240)"/>
<path d="M0,0 L4,1 L9,9 L8,14 L3,15 L-2,10 L-3,8 L-3,2 Z " fill="#000000" transform="translate(86,229)"/>
<path d="M0,0 L8,0 L13,3 L12,6 L10,7 L0,7 L-5,5 L-3,1 Z " fill="#DC7F86" transform="translate(258,199)"/>
</svg>
