<?xml version="1.0" encoding="UTF-8"?>
<svg version="1.1" xmlns="http://www.w3.org/2000/svg" width="512" height="512">
<path d="M0,0 L8,0 L16,7 L28,31 L33,35 L41,47 L47,64 L50,79 L51,86 L51,108 L50,114 L50,122 L56,134 L57,138 L57,159 L55,165 L61,166 L66,169 L66,171 L76,171 L82,175 L91,178 L98,184 L102,193 L106,201 L106,210 L110,215 L111,219 L111,229 L105,238 L103,248 L101,251 L99,260 L94,265 L84,267 L80,277 L74,288 L68,296 L60,303 L51,307 L44,308 L47,322 L51,362 L53,391 L-220,391 L-218,353 L-215,318 L-213,306 L-228,299 L-239,291 L-249,280 L-254,271 L-255,263 L-265,262 L-271,258 L-275,253 L-275,250 L-279,248 L-284,243 L-285,240 L-285,227 L-284,211 L-280,205 L-279,204 L-278,192 L-271,184 L-269,184 L-268,175 L-261,169 L-256,167 L-246,167 L-242,169 L-234,164 L-228,162 L-231,152 L-231,137 L-227,123 L-224,114 L-223,90 L-219,77 L-212,63 L-205,54 L-197,47 L-186,39 L-178,19 L-174,13 L-169,8 L-160,7 L-150,13 L-143,21 L-138,26 L-120,26 L-58,24 L-24,22 L-18,14 L-10,6 Z " fill="#9EA6B8" transform="translate(343,121)"/>
<path d="M0,0 L8,0 L16,7 L28,31 L33,35 L41,47 L47,64 L50,79 L51,86 L51,108 L50,114 L50,122 L56,134 L57,138 L57,159 L55,165 L61,166 L66,169 L66,171 L76,171 L82,175 L91,178 L98,184 L102,193 L106,201 L106,210 L110,215 L111,219 L111,229 L105,238 L103,248 L101,251 L99,260 L94,265 L84,267 L80,277 L74,288 L68,296 L60,303 L51,307 L44,308 L47,322 L51,362 L53,391 L43,391 L39,341 L35,310 L34,303 L37,300 L49,297 L59,291 L67,280 L72,269 L73,264 L64,263 L59,259 L54,258 L46,265 L38,270 L32,272 L25,271 L23,270 L10,268 L4,264 L0,260 L-6,257 L-11,252 L-14,245 L-13,234 L-15,229 L-15,217 L-13,210 L-14,201 L-10,192 L-3,186 L0,185 L4,180 L12,176 L19,176 L28,169 L32,167 L45,167 L47,155 L47,141 L43,130 L40,125 L40,111 L41,104 L41,89 L38,70 L33,55 L26,42 L18,35 L8,14 L5,10 L0,12 L-9,19 L-18,29 L-21,32 L-77,35 L-80,36 L-77,40 L-76,43 L-76,50 L-80,59 L-90,70 L-93,75 L-95,85 L-95,94 L-90,92 L-76,92 L-68,97 L-65,101 L-65,107 L-69,113 L-75,116 L-80,116 L-79,121 L-79,150 L-49,149 L-47,151 L-47,156 L-49,158 L-60,159 L-99,159 L-120,158 L-122,156 L-121,151 L-120,150 L-88,150 L-89,116 L-98,112 L-100,110 L-106,119 L-117,131 L-128,138 L-138,142 L-145,143 L-156,143 L-169,140 L-185,132 L-201,122 L-206,119 L-215,119 L-216,124 L-221,139 L-221,149 L-218,159 L-216,165 L-214,164 L-204,164 L-198,167 L-196,170 L-183,174 L-176,180 L-173,190 L-167,197 L-165,202 L-164,209 L-159,215 L-158,222 L-161,231 L-164,236 L-169,239 L-173,248 L-176,251 L-180,253 L-183,258 L-188,261 L-207,262 L-217,258 L-226,250 L-235,250 L-236,255 L-242,260 L-246,262 L-243,270 L-236,279 L-228,287 L-212,295 L-205,297 L-203,299 L-204,312 L-209,370 L-210,391 L-220,391 L-218,353 L-215,318 L-213,306 L-228,299 L-239,291 L-249,280 L-254,271 L-255,263 L-265,262 L-271,258 L-275,253 L-275,250 L-279,248 L-284,243 L-285,240 L-285,227 L-284,211 L-280,205 L-279,204 L-278,192 L-271,184 L-269,184 L-268,175 L-261,169 L-256,167 L-246,167 L-242,169 L-234,164 L-228,162 L-231,152 L-231,137 L-227,123 L-224,114 L-223,90 L-219,77 L-212,63 L-205,54 L-197,47 L-186,39 L-178,19 L-174,13 L-169,8 L-160,7 L-150,13 L-143,21 L-138,26 L-120,26 L-58,24 L-24,22 L-18,14 L-10,6 Z " fill="#010101" transform="translate(343,121)"/>
<path d="M0,0 L25,0 L46,1 L73,5 L84,9 L90,13 L95,19 L99,28 L102,44 L105,68 L106,83 L106,97 L-97,97 L-97,86 L-95,66 L-91,49 L-86,36 L-80,27 L-73,19 L-63,13 L-41,6 L-27,3 Z " fill="#C2CADB" transform="translate(255,415)"/>
<path d="M0,0 L6,1 L19,14 L22,17 L37,18 L84,18 L88,23 L89,26 L89,33 L85,42 L75,53 L72,58 L70,68 L70,77 L75,75 L89,75 L97,80 L100,84 L100,90 L96,96 L90,99 L85,99 L86,104 L86,133 L116,132 L118,134 L118,139 L116,141 L105,142 L66,142 L45,141 L43,139 L44,134 L45,133 L77,133 L76,99 L67,95 L65,93 L59,102 L48,114 L37,121 L27,125 L20,126 L9,126 L-4,123 L-20,115 L-36,105 L-41,102 L-50,102 L-49,75 L-44,60 L-37,48 L-21,32 L-14,27 L-3,3 Z " fill="#56588B" transform="translate(178,138)"/>
<path d="M0,0 L7,1 L12,6 L20,5 L25,8 L29,12 L37,13 L40,18 L41,23 L44,24 L46,28 L46,39 L51,47 L50,54 L45,60 L45,68 L41,74 L40,81 L37,83 L26,83 L25,82 L17,81 L12,77 L9,76 L1,76 L-5,79 L-13,86 L-22,89 L-26,87 L-38,86 L-44,82 L-49,77 L-55,73 L-56,66 L-55,57 L-57,54 L-57,42 L-56,26 L-52,21 L-45,20 L-43,15 L-38,11 L-27,11 L-25,7 L-18,2 L-6,2 Z " fill="#FEE96D" transform="translate(394,295)"/>
<path d="M0,0 L6,0 L9,2 L15,2 L16,1 L24,1 L27,6 L39,8 L45,12 L48,23 L54,29 L57,41 L62,47 L62,49 L60,49 L59,57 L53,61 L49,71 L41,77 L39,80 L28,80 L21,81 L13,77 L9,71 L5,69 L-5,69 L-11,73 L-14,79 L-18,81 L-33,81 L-37,78 L-40,71 L-46,67 L-48,63 L-47,55 L-46,42 L-40,35 L-40,23 L-35,18 L-32,16 L-32,9 L-28,5 L-20,4 L-14,8 L-9,6 L-5,2 Z " fill="#FEE96D" transform="translate(114,293)"/>
<path d="M0,0 L14,0 L22,5 L25,9 L25,15 L21,21 L15,24 L10,24 L11,29 L11,58 L41,57 L43,59 L43,64 L41,66 L30,67 L-9,67 L-30,66 L-32,64 L-31,59 L-30,58 L2,58 L1,24 L-8,20 L-11,15 L-11,8 L-7,3 Z " fill="#020102" transform="translate(253,213)"/>
<path d="M0,0 L28,0 L30,11 L28,16 L27,27 L8,27 L-9,24 L-17,20 L-20,16 L-20,9 L-15,4 L-8,1 Z " fill="#57598C" transform="translate(301,322)"/>
<path d="M0,0 L13,0 L7,7 L-1,12 L-5,17 L-7,20 L-16,18 L-22,13 L-21,7 L-16,3 L-10,1 Z " fill="#575A8B" transform="translate(337,299)"/>
<path d="M0,0 L5,1 L8,4 L8,11 L4,14 L-3,13 L-6,9 L-5,3 Z " fill="#040405" transform="translate(310,204)"/>
<path d="M0,0 L5,1 L8,5 L8,10 L3,14 L-2,13 L-5,9 L-5,4 Z " fill="#010102" transform="translate(207,203)"/>
<path d="M0,0 L11,0 L15,2 L13,6 L-1,6 L-3,5 L-2,1 Z " fill="#E18289" transform="translate(254,222)"/>
</svg>
