<?xml version="1.0" encoding="UTF-8"?>
<svg version="1.1" xmlns="http://www.w3.org/2000/svg" width="512" height="512">
<path d="M0,0 L5,1 L12,7 L23,28 L24,31 L29,36 L35,43 L43,62 L46,76 L48,94 L48,104 L46,121 L52,133 L55,148 L59,152 L68,155 L72,160 L77,163 L80,170 L87,173 L92,180 L99,186 L102,194 L104,197 L104,211 L101,217 L98,218 L96,222 L89,229 L88,253 L83,270 L76,286 L70,295 L63,302 L49,310 L41,312 L43,319 L46,345 L51,401 L52,414 L-223,414 L-223,376 L-219,324 L-216,305 L-225,303 L-240,294 L-252,281 L-256,274 L-258,270 L-259,264 L-270,262 L-277,256 L-279,250 L-283,248 L-288,242 L-289,239 L-289,230 L-288,225 L-288,214 L-285,207 L-283,205 L-281,192 L-274,184 L-271,175 L-265,170 L-257,167 L-249,168 L-245,169 L-241,166 L-236,164 L-231,164 L-234,155 L-235,149 L-235,141 L-231,125 L-228,118 L-227,94 L-223,78 L-217,66 L-210,57 L-206,52 L-195,43 L-191,40 L-189,40 L-186,30 L-181,18 L-173,9 L-171,8 L-162,8 L-156,12 L-148,19 L-142,26 L-97,26 L-68,25 L-30,23 L-28,23 L-21,14 L-14,7 L-4,1 Z " fill="#9EA6B8" transform="translate(349,98)"/>
<path d="M0,0 L5,1 L12,7 L23,28 L24,31 L29,36 L35,43 L43,62 L46,76 L48,94 L48,104 L46,121 L52,133 L55,148 L59,152 L68,155 L72,160 L77,163 L80,170 L87,173 L92,180 L99,186 L102,194 L104,197 L104,211 L101,217 L98,218 L96,222 L89,229 L88,253 L83,270 L76,286 L70,295 L63,302 L49,310 L41,312 L43,319 L46,345 L51,401 L52,414 L42,414 L38,372 L35,337 L32,314 L32,306 L44,301 L55,295 L62,289 L68,279 L74,264 L77,255 L78,249 L79,232 L71,231 L65,227 L63,220 L59,221 L57,232 L52,240 L41,250 L31,252 L23,256 L14,255 L-1,247 L-5,242 L-8,234 L-11,230 L-13,222 L-13,216 L-16,211 L-17,201 L-12,191 L-10,189 L-8,180 L-4,174 L-1,165 L4,161 L9,159 L16,159 L22,154 L34,152 L42,147 L44,147 L42,136 L36,124 L36,114 L37,108 L37,85 L33,65 L27,50 L21,41 L15,36 L7,20 L2,11 L-3,12 L-12,19 L-19,26 L-23,32 L-25,33 L-65,35 L-82,35 L-80,39 L-80,49 L-84,57 L-93,67 L-97,75 L-98,78 L-99,92 L-100,95 L-91,92 L-82,92 L-74,95 L-69,100 L-68,106 L-71,112 L-77,116 L-83,117 L-82,128 L-82,151 L-68,150 L-52,150 L-50,152 L-51,157 L-54,159 L-77,160 L-122,159 L-125,157 L-125,152 L-124,151 L-117,150 L-93,150 L-91,151 L-91,116 L-97,115 L-102,112 L-103,110 L-105,110 L-109,116 L-118,126 L-125,132 L-139,139 L-143,140 L-164,140 L-179,135 L-198,124 L-209,117 L-218,116 L-219,123 L-224,138 L-224,152 L-220,163 L-215,164 L-206,165 L-200,169 L-199,171 L-190,173 L-182,178 L-179,181 L-176,191 L-171,197 L-169,201 L-168,209 L-163,215 L-162,217 L-162,224 L-164,227 L-166,235 L-172,239 L-176,248 L-181,252 L-185,256 L-189,260 L-194,262 L-212,262 L-221,258 L-229,251 L-230,250 L-238,250 L-240,256 L-246,261 L-250,261 L-246,272 L-234,285 L-224,292 L-217,295 L-209,297 L-207,299 L-208,315 L-212,364 L-214,414 L-223,414 L-223,376 L-219,324 L-216,305 L-225,303 L-240,294 L-252,281 L-256,274 L-258,270 L-259,264 L-270,262 L-277,256 L-279,250 L-283,248 L-288,242 L-289,239 L-289,230 L-288,225 L-288,214 L-285,207 L-283,205 L-281,192 L-274,184 L-271,175 L-265,170 L-257,167 L-249,168 L-245,169 L-241,166 L-236,164 L-231,164 L-234,155 L-235,149 L-235,141 L-231,125 L-228,118 L-227,94 L-223,78 L-217,66 L-210,57 L-206,52 L-195,43 L-191,40 L-189,40 L-186,30 L-181,18 L-173,9 L-171,8 L-162,8 L-156,12 L-148,19 L-142,26 L-97,26 L-68,25 L-30,23 L-28,23 L-21,14 L-14,7 L-4,1 Z " fill="#010101" transform="translate(349,98)"/>
<path d="M0,0 L32,0 L60,2 L80,6 L92,12 L97,18 L101,26 L104,39 L107,62 L110,103 L110,122 L-95,122 L-95,102 L-94,77 L-91,58 L-86,41 L-79,28 L-72,20 L-61,13 L-40,6 L-19,2 Z " fill="#C2CADB" transform="translate(255,390)"/>
<path d="M0,0 L5,1 L19,15 L19,17 L22,18 L86,18 L88,22 L88,32 L84,40 L75,50 L71,58 L70,61 L69,75 L68,78 L77,75 L86,75 L94,78 L99,83 L100,89 L97,95 L91,99 L85,100 L86,111 L86,134 L100,133 L116,133 L118,135 L117,140 L114,142 L91,143 L46,142 L43,140 L43,135 L44,134 L51,133 L75,133 L77,134 L77,99 L71,98 L66,95 L65,93 L63,93 L59,99 L50,109 L43,115 L29,122 L25,123 L4,123 L-11,118 L-30,107 L-41,100 L-50,99 L-50,79 L-46,64 L-39,51 L-30,41 L-21,32 L-15,28 L-8,13 L-3,3 Z " fill="#56588B" transform="translate(181,115)"/>
<path d="M0,0 L8,0 L11,2 L17,1 L26,1 L28,6 L35,7 L41,8 L46,11 L48,15 L49,22 L56,30 L57,38 L63,46 L61,56 L55,60 L51,71 L45,74 L41,79 L34,80 L21,80 L14,76 L11,71 L5,68 L-5,69 L-11,74 L-13,79 L-18,81 L-30,81 L-35,78 L-38,71 L-44,67 L-46,64 L-46,56 L-45,54 L-44,40 L-41,37 L-39,37 L-39,23 L-34,18 L-31,16 L-30,7 L-25,4 L-18,4 L-14,7 L-8,6 L-3,1 Z " fill="#FEE96D" transform="translate(115,271)"/>
<path d="M0,0 L6,0 L11,4 L18,6 L22,12 L26,14 L28,20 L30,22 L37,24 L40,30 L46,34 L49,42 L51,44 L51,52 L45,61 L40,65 L34,67 L29,67 L25,59 L21,56 L14,56 L9,59 L7,63 L5,71 L2,77 L-3,80 L-6,85 L-15,87 L-21,91 L-28,91 L-31,88 L-39,84 L-41,82 L-44,73 L-48,68 L-49,56 L-52,50 L-51,44 L-45,36 L-44,27 L-40,22 L-39,15 L-34,12 L-25,13 L-20,7 L-18,6 L-8,6 Z " fill="#FDE96D" transform="translate(393,254)"/>
<path d="M0,0 L9,0 L17,3 L22,8 L23,14 L20,20 L14,24 L8,25 L9,36 L9,59 L23,58 L39,58 L41,60 L40,65 L37,67 L14,68 L-31,67 L-34,65 L-34,60 L-33,59 L-26,58 L-2,58 L0,59 L0,24 L-6,23 L-11,20 L-14,14 L-13,8 L-9,3 Z " fill="#010102" transform="translate(258,190)"/>
<path d="M0,0 L33,0 L33,8 L36,16 L37,18 L37,25 L30,27 L12,27 L-5,24 L-13,20 L-17,14 L-16,8 L-11,3 Z " fill="#57598C" transform="translate(300,297)"/>
<path d="M0,0 L8,0 L5,7 L3,14 L-1,20 L-12,18 L-17,15 L-18,8 L-13,3 L-8,1 Z " fill="#57598B" transform="translate(336,274)"/>
<path d="M0,0 L6,0 L9,3 L10,9 L7,13 L-1,13 L-4,9 L-3,2 Z " fill="#020203" transform="translate(311,182)"/>
<path d="M0,0 L6,0 L9,3 L9,10 L6,13 L0,13 L-3,10 L-4,5 Z " fill="#010102" transform="translate(208,181)"/>
<path d="M0,0 L5,1 L6,2 L6,7 L-1,13 L-7,13 L-9,11 L-8,6 Z " fill="#000000" transform="translate(440,246)"/>
<path d="M0,0 L5,0 L7,2 L6,7 L1,10 L-2,13 L-7,11 L-7,6 Z " fill="#070603" transform="translate(398,300)"/>
<path d="M0,0 L5,1 L6,2 L5,12 L1,15 L-3,14 L-4,13 L-3,4 Z " fill="#000000" transform="translate(421,233)"/>
<path d="M0,0 L8,0 L13,3 L12,6 L10,7 L0,7 L-5,5 L-3,1 Z " fill="#DC7F86" transform="translate(258,199)"/>
</svg>
