<?xml version="1.0" encoding="UTF-8"?>
<svg version="1.1" xmlns="http://www.w3.org/2000/svg" width="512" height="512">
<path d="M0,0 L8,0 L14,5 L18,16 L21,37 L22,49 L23,79 L23,150 L32,150 L38,153 L40,155 L40,164 L36,170 L40,175 L39,183 L34,188 L26,193 L24,193 L26,225 L41,237 L55,246 L66,255 L72,263 L74,268 L75,274 L75,282 L72,290 L65,298 L56,301 L45,301 L27,297 L24,296 L26,308 L29,331 L30,396 L28,450 L-287,450 L-288,444 L-288,299 L-289,288 L-300,297 L-308,301 L-319,301 L-326,298 L-331,294 L-335,285 L-335,274 L-332,264 L-326,253 L-314,240 L-305,233 L-293,226 L-293,205 L-292,190 L-300,190 L-308,187 L-311,183 L-310,176 L-305,170 L-309,163 L-309,157 L-305,152 L-298,150 L-292,150 L-293,148 L-294,137 L-294,97 L-293,77 L-292,27 L-289,15 L-283,8 L-281,7 L-272,7 L-265,11 L-255,22 L-255,24 L-224,18 L-192,15 L-160,13 L-84,13 L-50,16 L-24,20 L-20,20 L-14,11 L-6,3 Z " fill="#FAAA6A" transform="translate(393,62)"/>
<path d="M0,0 L8,0 L14,5 L18,16 L21,37 L22,49 L23,79 L23,150 L32,150 L38,153 L40,155 L40,164 L36,170 L40,175 L39,183 L34,188 L26,193 L24,193 L26,225 L41,237 L55,246 L66,255 L72,263 L74,268 L75,274 L75,282 L72,290 L65,298 L56,301 L45,301 L27,297 L24,296 L26,308 L29,331 L30,396 L28,450 L19,450 L19,333 L15,305 L12,292 L11,290 L11,284 L13,282 L19,283 L29,287 L43,290 L57,290 L62,287 L64,283 L64,271 L61,265 L53,257 L35,245 L19,233 L16,229 L15,211 L15,189 L19,185 L29,179 L23,175 L23,169 L30,161 L30,160 L17,158 L14,156 L13,147 L12,52 L10,30 L6,12 L5,10 L1,11 L-7,18 L-16,31 L-28,30 L-63,25 L-91,23 L-156,23 L-213,27 L-246,32 L-254,34 L-259,34 L-268,23 L-273,18 L-278,17 L-281,24 L-283,91 L-284,106 L-284,132 L-283,155 L-286,158 L-295,160 L-299,160 L-292,169 L-293,174 L-299,179 L-300,181 L-288,182 L-284,185 L-283,196 L-283,231 L-297,240 L-309,249 L-316,257 L-322,267 L-325,276 L-324,286 L-319,290 L-310,291 L-301,285 L-292,273 L-287,273 L-282,280 L-278,295 L-278,450 L-287,450 L-288,444 L-288,299 L-289,288 L-300,297 L-308,301 L-319,301 L-326,298 L-331,294 L-335,285 L-335,274 L-332,264 L-326,253 L-314,240 L-305,233 L-293,226 L-293,205 L-292,190 L-300,190 L-308,187 L-311,183 L-310,176 L-305,170 L-309,163 L-309,157 L-305,152 L-298,150 L-292,150 L-293,148 L-294,137 L-294,97 L-293,77 L-292,27 L-289,15 L-283,8 L-281,7 L-272,7 L-265,11 L-255,22 L-255,24 L-224,18 L-192,15 L-160,13 L-84,13 L-50,16 L-24,20 L-20,20 L-14,11 L-6,3 Z " fill="#010100" transform="translate(393,62)"/>
<path d="M0,0 L17,0 L28,3 L40,9 L51,18 L58,27 L63,38 L64,41 L64,56 L58,68 L49,77 L39,83 L24,88 L18,89 L8,89 L-4,86 L-18,79 L-27,71 L-31,65 L-35,52 L-35,38 L-31,23 L-24,12 L-17,6 L-9,2 Z " fill="#CE7E3E" transform="translate(331,112)"/>
<path d="M0,0 L28,0 L45,2 L60,6 L70,10 L79,17 L83,25 L82,33 L78,40 L71,46 L58,52 L45,55 L-42,55 L-42,7 L-28,3 L-13,1 Z " fill="#CE7E3E" transform="translate(157,366)"/>
<path d="M0,0 L54,0 L103,4 L102,43 L-26,43 L-30,37 L-33,28 L-33,18 L-29,10 L-22,5 L-7,1 Z " fill="#CE7E3E" transform="translate(310,469)"/>
<path d="M0,0 L16,0 L24,4 L31,11 L35,19 L37,25 L37,41 L33,52 L24,62 L12,68 L8,69 L-7,69 L-17,65 L-19,63 L-19,30 L-18,9 L-9,3 Z " fill="#CD7D3E" transform="translate(133,432)"/>
<path d="M0,0 L36,0 L36,45 L28,47 L16,47 L-9,45 L-22,41 L-30,37 L-37,29 L-38,26 L-38,19 L-34,11 L-28,6 L-17,2 Z " fill="#CE7E3E" transform="translate(377,413)"/>
<path d="M0,0 L14,2 L22,6 L27,12 L29,17 L29,35 L32,41 L40,52 L42,58 L42,70 L38,77 L33,82 L25,87 L22,88 L3,88 L-1,86 L-2,76 L-2,50 L-1,35 Z " fill="#CD7D3E" transform="translate(110,118)"/>
<path d="M0,0 L26,0 L35,3 L41,8 L43,11 L42,19 L36,25 L20,29 L17,29 L18,35 L19,58 L19,66 L36,65 L70,65 L73,67 L73,72 L71,74 L-8,76 L-25,77 L-40,77 L-41,76 L-41,71 L-38,69 L-23,67 L-2,66 L10,66 L9,47 L9,29 L-1,28 L-12,22 L-15,18 L-15,9 L-11,4 L-5,1 Z " fill="#030201" transform="translate(239,163)"/>
<path d="M0,0 L26,0 L33,3 L33,7 L30,9 L18,11 L5,11 L-4,8 L-7,6 L-5,2 Z " fill="#E3838A" transform="translate(239,172)"/>
<path d="M0,0 L6,0 L11,5 L10,11 L5,14 L-2,13 L-5,7 L-3,2 Z " fill="#030201" transform="translate(321,149)"/>
<path d="M0,0 L8,0 L11,3 L12,7 L9,12 L2,13 L-3,9 L-3,3 Z " fill="#010100" transform="translate(175,158)"/>
</svg>
