<?xml version="1.0" encoding="UTF-8"?>
<svg version="1.1" xmlns="http://www.w3.org/2000/svg" width="512" height="512">
<path d="M0,0 L8,0 L16,6 L22,16 L22,18 L43,14 L76,10 L103,8 L130,7 L164,7 L194,9 L229,13 L264,19 L272,9 L279,3 L283,1 L291,2 L297,10 L301,24 L303,86 L303,144 L302,149 L307,151 L316,158 L317,165 L312,171 L313,172 L313,178 L308,183 L303,187 L303,223 L317,235 L325,243 L333,250 L340,260 L343,268 L344,281 L340,292 L332,299 L329,300 L317,300 L305,294 L304,293 L302,336 L302,445 L-14,445 L-15,437 L-15,376 L-14,357 L-14,284 L-13,276 L-29,284 L-39,286 L-49,285 L-55,281 L-59,276 L-60,273 L-60,261 L-55,251 L-46,241 L-31,227 L-14,214 L-13,182 L-22,181 L-26,177 L-25,170 L-22,166 L-27,161 L-27,155 L-19,148 L-13,145 L-12,125 L-12,28 L-7,8 L-3,2 Z " fill="#FAAA6A" transform="translate(117,67)"/>
<path d="M0,0 L8,0 L16,6 L22,16 L22,18 L43,14 L76,10 L103,8 L130,7 L164,7 L194,9 L229,13 L264,19 L272,9 L279,3 L283,1 L291,2 L297,10 L301,24 L303,86 L303,144 L302,149 L307,151 L316,158 L317,165 L312,171 L313,172 L313,178 L308,183 L303,187 L303,223 L317,235 L325,243 L333,250 L340,260 L343,268 L344,281 L340,292 L332,299 L329,300 L317,300 L305,294 L304,293 L302,336 L302,445 L293,445 L292,443 L292,332 L293,312 L293,281 L297,277 L302,277 L307,283 L319,290 L326,290 L331,287 L333,283 L333,271 L327,259 L309,241 L301,234 L293,226 L292,184 L296,179 L299,177 L297,172 L298,167 L304,163 L302,159 L293,153 L293,90 L291,27 L287,13 L284,12 L276,19 L267,30 L260,29 L220,22 L179,18 L109,18 L79,20 L39,25 L22,28 L17,27 L11,18 L7,12 L3,9 L0,20 L-2,27 L-2,136 L-3,150 L-11,155 L-15,158 L-9,161 L-7,166 L-12,172 L-6,175 L-4,178 L-4,218 L-6,221 L-11,224 L-24,235 L-32,242 L-44,253 L-49,261 L-50,270 L-48,274 L-46,275 L-36,275 L-25,271 L-12,264 L-7,264 L-4,268 L-4,362 L-5,380 L-5,445 L-14,445 L-15,437 L-15,376 L-14,357 L-14,284 L-13,276 L-29,284 L-39,286 L-49,285 L-55,281 L-59,276 L-60,273 L-60,261 L-55,251 L-46,241 L-31,227 L-14,214 L-13,182 L-22,181 L-26,177 L-25,170 L-22,166 L-27,161 L-27,155 L-19,148 L-13,145 L-12,125 L-12,28 L-7,8 L-3,2 Z " fill="#010100" transform="translate(117,67)"/>
<path d="M0,0 L16,0 L28,3 L41,10 L51,19 L58,27 L63,38 L64,42 L64,55 L60,65 L50,76 L36,84 L23,88 L17,89 L8,89 L-4,86 L-18,79 L-28,70 L-34,58 L-35,53 L-35,37 L-32,25 L-26,14 L-19,7 L-9,2 Z " fill="#CE7E3E" transform="translate(332,112)"/>
<path d="M0,0 L12,0 L29,2 L37,7 L41,12 L41,19 L36,25 L30,28 L15,30 L16,57 L44,57 L62,60 L70,63 L76,70 L77,76 L73,84 L65,91 L55,96 L43,99 L28,101 L-10,101 L-36,98 L-47,94 L-52,89 L-53,83 L-49,75 L-42,69 L-31,64 L-17,60 L-7,58 L7,58 L6,29 L-3,28 L-13,22 L-16,18 L-17,10 L-11,3 L-6,1 Z " fill="#030201" transform="translate(244,163)"/>
<path d="M0,0 L28,0 L43,1 L59,5 L65,10 L71,21 L71,33 L68,41 L61,49 L56,52 L45,55 L-36,55 L-44,56 L-44,3 L-41,2 L-14,1 Z " fill="#CE7E3E" transform="translate(157,366)"/>
<path d="M0,0 L10,0 L25,2 L50,3 L51,45 L-78,45 L-84,36 L-87,27 L-86,18 L-80,10 L-72,6 L-55,3 L-48,2 Z " fill="#CE7E3E" transform="translate(359,467)"/>
<path d="M0,0 L25,0 L30,1 L30,53 L27,54 L7,54 L-19,51 L-32,46 L-40,39 L-45,31 L-46,22 L-42,14 L-37,9 L-29,5 L-18,2 Z " fill="#CD7D3D" transform="translate(379,406)"/>
<path d="M0,0 L15,0 L25,5 L32,13 L36,22 L37,26 L37,40 L34,50 L27,59 L19,65 L8,69 L-8,69 L-17,65 L-23,58 L-23,15 L-15,6 L-4,1 Z " fill="#CD7D3D" transform="translate(134,432)"/>
<path d="M0,0 L9,1 L18,5 L26,11 L30,16 L32,22 L31,39 L35,47 L41,57 L44,68 L44,77 L40,83 L32,90 L20,95 L0,96 Z " fill="#CE7E3E" transform="translate(114,114)"/>
<path d="M0,0 L37,0 L55,2 L62,6 L62,11 L54,18 L45,22 L31,25 L20,26 L-22,26 L-44,22 L-49,19 L-46,14 L-41,10 L-26,4 L-11,1 Z " fill="#A45B4D" transform="translate(249,229)"/>
<path d="M0,0 L17,0 L28,2 L33,5 L33,8 L26,11 L19,12 L8,12 L-2,9 L-7,6 L-7,3 Z " fill="#E08188" transform="translate(243,172)"/>
<path d="M0,0 L8,0 L12,4 L12,10 L6,14 L0,13 L-3,9 L-3,3 Z " fill="#020100" transform="translate(324,153)"/>
<path d="M0,0 L6,0 L11,5 L10,11 L6,14 L0,13 L-4,9 L-4,3 Z " fill="#090604" transform="translate(180,155)"/>
</svg>
