<?xml version="1.0" encoding="UTF-8"?>
<svg version="1.1" xmlns="http://www.w3.org/2000/svg" width="512" height="512">
<path d="M0,0 L7,0 L15,4 L22,13 L23,17 L34,14 L64,11 L96,9 L119,9 L154,11 L188,15 L215,20 L232,24 L248,28 L252,26 L261,17 L269,11 L275,8 L284,8 L289,13 L291,24 L291,37 L290,49 L288,96 L288,159 L299,168 L303,173 L303,180 L300,183 L301,185 L301,193 L298,196 L296,197 L289,197 L294,214 L299,226 L305,236 L317,252 L327,266 L331,275 L331,289 L328,295 L324,299 L316,302 L307,302 L297,297 L290,291 L288,289 L284,306 L276,372 L275,388 L275,418 L276,448 L-39,448 L-41,420 L-41,369 L-39,337 L-34,301 L-29,282 L-37,284 L-58,284 L-67,280 L-74,272 L-75,269 L-75,261 L-71,254 L-62,244 L-49,234 L-32,223 L-26,220 L-24,220 L-22,187 L-21,183 L-27,182 L-37,176 L-40,173 L-40,164 L-37,160 L-41,156 L-42,150 L-37,145 L-33,144 L-24,144 L-24,88 L-22,60 L-17,30 L-12,11 L-6,3 Z " fill="#FAAA6A" transform="translate(133,64)"/>
<path d="M0,0 L7,0 L15,4 L22,13 L23,17 L34,14 L64,11 L96,9 L119,9 L154,11 L188,15 L215,20 L232,24 L248,28 L252,26 L261,17 L269,11 L275,8 L284,8 L289,13 L291,24 L291,37 L290,49 L288,96 L288,159 L299,168 L303,173 L303,180 L300,183 L301,185 L301,193 L298,196 L296,197 L289,197 L294,214 L299,226 L305,236 L317,252 L327,266 L331,275 L331,289 L328,295 L324,299 L316,302 L307,302 L297,297 L290,291 L288,289 L284,306 L276,372 L275,388 L275,418 L276,448 L266,448 L265,422 L265,382 L268,351 L274,302 L278,287 L284,275 L286,273 L291,273 L294,277 L298,284 L299,287 L304,289 L310,292 L317,291 L320,289 L321,286 L321,278 L315,266 L306,255 L294,238 L286,222 L282,211 L280,199 L280,189 L284,186 L290,186 L288,183 L289,178 L291,174 L280,165 L278,161 L277,137 L277,119 L279,66 L280,55 L280,18 L274,20 L263,29 L252,38 L245,38 L213,30 L177,24 L160,22 L133,20 L84,20 L43,23 L19,26 L15,22 L10,14 L7,11 L-1,11 L-4,20 L-8,37 L-12,62 L-13,73 L-14,137 L-15,152 L-16,153 L-28,154 L-22,160 L-22,165 L-24,167 L-30,168 L-30,170 L-25,172 L-15,176 L-13,178 L-13,202 L-14,223 L-19,228 L-37,238 L-54,251 L-59,255 L-65,264 L-64,269 L-58,273 L-55,274 L-39,274 L-25,270 L-18,271 L-17,276 L-23,299 L-27,323 L-30,351 L-31,372 L-31,415 L-29,448 L-39,448 L-41,420 L-41,369 L-39,337 L-34,301 L-29,282 L-37,284 L-58,284 L-67,280 L-74,272 L-75,269 L-75,261 L-71,254 L-62,244 L-49,234 L-32,223 L-26,220 L-24,220 L-22,187 L-21,183 L-27,182 L-37,176 L-40,173 L-40,164 L-37,160 L-41,156 L-42,150 L-37,145 L-33,144 L-24,144 L-24,88 L-22,60 L-17,30 L-12,11 L-6,3 Z " fill="#010100" transform="translate(133,64)"/>
<path d="M0,0 L15,0 L32,3 L39,7 L43,12 L44,19 L40,25 L32,29 L26,30 L17,30 L17,52 L33,52 L54,55 L68,60 L79,67 L85,76 L85,89 L80,98 L73,105 L60,113 L46,118 L37,120 L11,122 L-12,122 L-29,119 L-41,115 L-50,109 L-55,103 L-57,98 L-57,89 L-54,81 L-45,71 L-36,65 L-25,60 L-7,54 L7,52 L9,29 L3,29 L-9,23 L-13,18 L-14,16 L-14,9 L-10,4 Z " fill="#A45B4D" transform="translate(246,163)"/>
<path d="M0,0 L20,0 L30,3 L43,10 L55,21 L61,31 L65,40 L66,45 L66,52 L62,64 L53,74 L45,80 L32,86 L22,88 L4,88 L-9,83 L-19,77 L-28,68 L-33,56 L-34,50 L-34,39 L-31,26 L-25,15 L-19,8 L-9,2 Z " fill="#CE7E3E" transform="translate(332,113)"/>
<path d="M0,0 L10,0 L22,2 L32,7 L39,14 L43,22 L43,34 L40,43 L33,52 L21,58 L10,60 L-41,60 L-51,62 L-71,62 L-70,44 L-66,13 L-65,8 L-52,6 L-34,3 Z " fill="#CD7D3E" transform="translate(173,360)"/>
<path d="M0,0 L17,0 L49,2 L87,7 L90,8 L91,22 L91,48 L-30,48 L-40,42 L-44,37 L-46,32 L-45,23 L-38,13 L-27,6 L-16,2 Z " fill="#CD7E3E" transform="translate(308,464)"/>
<path d="M0,0 L15,0 L32,3 L39,7 L43,12 L44,19 L40,25 L32,29 L26,30 L17,30 L17,52 L33,52 L54,55 L68,60 L79,67 L85,76 L85,89 L80,98 L73,105 L60,113 L46,118 L37,120 L11,122 L-12,122 L-29,119 L-41,115 L-50,109 L-55,103 L-57,98 L-57,89 L-54,81 L-45,71 L-36,65 L-25,60 L-7,54 L7,52 L9,29 L3,29 L-9,23 L-13,18 L-14,16 L-14,9 L-10,4 Z M7,61 L-10,64 L-28,71 L-37,76 L-44,82 L-48,90 L-48,97 L-41,105 L-28,110 L-12,113 L18,113 L41,110 L56,105 L67,98 L74,91 L76,87 L76,78 L71,72 L59,66 L44,62 L34,61 Z " fill="#030201" transform="translate(246,163)"/>
<path d="M0,0 L12,0 L24,4 L31,11 L35,20 L37,29 L37,43 L33,50 L26,56 L17,61 L9,63 L-12,63 L-24,58 L-28,55 L-29,44 L-29,13 L-21,6 L-12,2 Z " fill="#CD7D3E" transform="translate(130,435)"/>
<path d="M0,0 L1,2 L11,4 L20,9 L27,17 L31,28 L33,45 L38,55 L43,63 L43,76 L40,82 L32,89 L24,93 L12,96 L-4,97 L-3,24 Z " fill="#CD7D3E" transform="translate(122,113)"/>
<path d="M0,0 L21,0 L19,21 L17,51 L6,51 L-12,49 L-30,45 L-42,43 L-50,39 L-55,33 L-56,30 L-56,19 L-52,11 L-45,6 L-31,2 L-23,1 Z " fill="#CE7E3E" transform="translate(381,411)"/>
<path d="M0,0 L12,0 L27,2 L33,6 L33,9 L30,11 L25,12 L8,12 L-3,8 L-6,6 L-5,2 Z " fill="#E2838A" transform="translate(247,172)"/>
<path d="M0,0 L7,0 L11,3 L12,7 L10,12 L6,14 L-1,13 L-4,8 L-3,2 Z " fill="#060402" transform="translate(330,156)"/>
<path d="M0,0 L8,0 L12,4 L11,11 L9,13 L2,13 L-3,8 L-2,2 Z " fill="#060402" transform="translate(184,153)"/>
</svg>
