<?xml version="1.0" encoding="UTF-8"?>
<svg version="1.1" xmlns="http://www.w3.org/2000/svg" width="512" height="512">
<path d="M0,0 L10,0 L15,3 L20,2 L24,0 L33,0 L40,5 L42,10 L43,16 L43,34 L52,30 L61,31 L65,34 L66,37 L66,47 L60,55 L49,61 L39,63 L21,64 L-7,64 L-27,62 L-37,59 L-43,52 L-43,45 L-40,39 L-31,33 L-24,31 L-18,31 L-16,19 L-13,10 L-8,4 Z " fill="#020101" transform="translate(299,73)"/>
<path d="M0,0 L7,1 L11,6 L17,6 L24,0 L30,1 L32,7 L32,30 L12,34 L-5,34 L-12,32 L-12,25 L-7,6 L-2,1 Z " fill="#E9A074" transform="translate(301,82)"/>
<path d="M0,0 L2,0 L4,9 L15,11 L21,12 L34,12 L47,11 L43,15 L39,16 L26,16 L3,15 L-9,13 L-13,10 L-11,5 L-3,1 Z " fill="#E69E72" transform="translate(278,112)"/>
<path d="M0,0 L5,0 L4,5 L-1,10 L-10,13 L-16,13 L-10,6 L-5,2 Z " fill="#E69E73" transform="translate(351,113)"/>
</svg>
