<?xml version="1.0" encoding="UTF-8"?>
<svg version="1.1" xmlns="http://www.w3.org/2000/svg" width="512" height="512">
<path d="M0,0 L10,0 L17,4 L21,1 L24,0 L33,0 L39,4 L42,10 L43,30 L42,34 L52,30 L61,31 L65,35 L66,38 L66,45 L62,53 L53,59 L45,62 L38,63 L21,64 L-7,64 L-27,62 L-36,60 L-42,55 L-43,53 L-43,44 L-39,38 L-34,34 L-24,31 L-18,31 L-16,18 L-12,8 L-5,2 Z " fill="#020101" transform="translate(271,84)"/>
<path d="M0,0 L7,1 L11,6 L17,6 L24,0 L29,1 L31,4 L31,30 L18,33 L9,34 L-5,34 L-13,32 L-10,16 L-6,4 Z " fill="#EBA275" transform="translate(273,93)"/>
<path d="M0,0 L2,0 L4,8 L15,11 L21,12 L46,11 L42,15 L39,16 L25,16 L3,15 L-9,13 L-13,10 L-12,6 L-6,2 Z " fill="#E59E72" transform="translate(250,123)"/>
<path d="M0,0 L6,0 L5,5 L-1,10 L-9,13 L-15,13 L-12,8 L-4,2 Z " fill="#E79F73" transform="translate(322,124)"/>
</svg>
