<?xml version="1.0" encoding="UTF-8"?>
<svg version="1.1" xmlns="http://www.w3.org/2000/svg" width="512" height="512">
<path d="M0,0 L9,0 L15,4 L20,2 L30,2 L36,6 L40,13 L40,23 L38,28 L40,32 L40,43 L35,49 L32,50 L22,50 L18,48 L18,63 L16,64 L10,64 L9,63 L9,50 L6,51 L-3,51 L-11,47 L-15,41 L-15,31 L-12,26 L-7,22 L-8,17 L-8,8 L-5,3 Z " fill="#010101" transform="translate(246,15)"/>
<path d="M0,0 L9,1 L12,5 L11,9 L9,11 L3,11 L-1,9 L-2,3 Z " fill="#FAF8F3" transform="translate(242,46)"/>
<path d="M0,0 L6,1 L8,5 L7,11 L3,11 L2,8 L-3,6 L-4,4 Z " fill="#F5F3EE" transform="translate(269,26)"/>
<path d="M0,0 L5,1 L7,3 L7,9 L3,12 L0,8 L-1,2 Z " fill="#F7F5F0" transform="translate(248,24)"/>
<path d="M0,0 L4,1 L5,2 L5,7 L-1,8 L-4,6 L-4,4 Z " fill="#F6F4F0" transform="translate(272,48)"/>
<path d="M0,0 L5,2 L4,6 L-1,6 L-1,1 Z " fill="#F5E169" transform="translate(260,39)"/>
</svg>
