<?xml version="1.0" encoding="UTF-8"?>
<svg version="1.1" xmlns="http://www.w3.org/2000/svg" width="512" height="512">
<path d="M0,0 L9,1 L14,5 L21,3 L28,3 L35,7 L39,15 L39,24 L37,28 L38,33 L39,42 L36,48 L28,52 L19,51 L16,49 L16,62 L14,65 L8,65 L6,62 L6,51 L-7,51 L-13,47 L-16,43 L-17,40 L-17,32 L-14,26 L-8,22 L-9,18 L-9,8 L-3,1 Z " fill="#010101" transform="translate(251,14)"/>
<path d="M0,0 L7,1 L10,6 L9,10 L8,11 L0,11 L-4,7 L-3,2 Z " fill="#F7F5F0" transform="translate(247,45)"/>
<path d="M0,0 L6,0 L9,5 L8,10 L4,11 L-1,6 L-3,5 L-1,1 Z " fill="#F6F5F0" transform="translate(272,27)"/>
<path d="M0,0 L5,0 L7,3 L7,9 L4,12 L2,12 L-1,5 Z " fill="#F1F0EB" transform="translate(252,24)"/>
<path d="M0,0 L4,2 L4,7 L3,8 L-4,7 L-4,4 Z " fill="#F7F5F1" transform="translate(276,48)"/>
<path d="M0,0 L5,2 L5,6 L0,6 L-1,1 Z " fill="#F3DF69" transform="translate(263,39)"/>
</svg>
