<?xml version="1.0" encoding="UTF-8"?>
<svg version="1.1" xmlns="http://www.w3.org/2000/svg" width="512" height="512">
<path d="M0,0 L17,0 L24,4 L29,8 L30,17 L25,27 L24,31 L30,43 L37,62 L42,81 L42,90 L34,96 L19,100 L12,101 L-8,101 L-21,97 L-25,94 L-25,80 L-21,62 L-15,46 L-8,32 L-6,28 L-10,26 L-12,23 L-12,16 L-9,12 L-7,6 L-2,1 Z " fill="#010100" transform="translate(259,29)"/>
<path d="M0,0 L3,1 L10,13 L17,32 L23,53 L21,57 L5,61 L-1,62 L-18,62 L-27,59 L-25,46 L-18,23 L-10,7 L-6,2 Z " fill="#F9AA6A" transform="translate(269,59)"/>
<path d="M0,0 L2,0 L5,11 L3,15 L-13,19 L-19,20 L-36,20 L-45,17 L-44,13 L-28,11 L-10,5 Z " fill="#F7A969" transform="translate(287,101)"/>
<path d="M0,0 L2,0 L4,5 L3,10 L-12,17 L-25,21 L-30,22 L-41,22 L-40,14 L-25,11 L-9,5 Z " fill="#FEE86D" transform="translate(284,92)"/>
<path d="M0,0 L3,1 L9,11 L9,13 L2,17 L-11,22 L-16,24 L-18,25 L-16,19 L-10,7 L-6,2 Z " fill="#F8AA69" transform="translate(269,59)"/>
<path d="M0,0 L3,0 L5,5 L5,9 L-3,13 L-19,18 L-27,18 L-25,12 L-22,9 L-7,4 L-1,1 Z " fill="#FEE76D" transform="translate(276,72)"/>
<path d="M0,0 L4,2 L11,1 L13,3 L18,4 L16,11 L13,12 L6,12 L2,14 L0,12 L-5,11 L-2,5 L-1,1 Z " fill="#F6E26A" transform="translate(261,38)"/>
</svg>
