<?xml version="1.0" encoding="UTF-8"?>
<svg version="1.1" xmlns="http://www.w3.org/2000/svg" width="512" height="512">
<path d="M0,0 L11,0 L17,4 L20,9 L22,18 L22,27 L20,41 L17,57 L15,73 L14,135 L11,182 L9,212 L7,255 L5,295 L2,328 L-1,373 L-3,396 L-3,403 L-293,403 L-294,398 L-294,367 L-291,352 L-285,336 L-277,320 L-265,304 L-252,291 L-239,282 L-240,277 L-252,252 L-257,237 L-263,212 L-264,206 L-270,206 L-275,202 L-277,198 L-277,181 L-275,175 L-281,173 L-284,169 L-284,155 L-279,142 L-269,121 L-263,108 L-255,90 L-242,64 L-231,47 L-222,35 L-209,19 L-199,9 L-189,3 L-186,2 L-175,2 L-170,6 L-168,10 L-168,28 L-169,31 L-41,31 L-30,19 L-18,9 L-8,3 Z " fill="#FAF5E1" transform="translate(412,109)"/>
<path d="M0,0 L11,0 L17,4 L20,9 L22,18 L22,27 L20,41 L17,57 L15,73 L14,135 L11,182 L9,212 L7,255 L5,295 L2,328 L-1,373 L-3,396 L-3,403 L-13,403 L-13,390 L-10,357 L-7,312 L-5,289 L-20,289 L-30,284 L-35,278 L-35,271 L-30,267 L-25,265 L-3,265 L-3,260 L-26,260 L-36,257 L-43,251 L-44,242 L-39,237 L-29,234 L-8,234 L-1,235 L-1,227 L-3,228 L-15,228 L-23,225 L-28,220 L-28,213 L-23,209 L-18,207 L0,207 L0,190 L3,148 L4,132 L4,79 L7,55 L11,34 L11,14 L10,10 L2,10 L-10,16 L-20,24 L-32,35 L-36,40 L-38,41 L-77,41 L-143,40 L-144,45 L-153,55 L-162,61 L-165,62 L-187,63 L-200,70 L-210,76 L-220,80 L-228,80 L-234,77 L-237,75 L-239,81 L-252,108 L-263,133 L-273,154 L-275,166 L-267,166 L-264,169 L-265,178 L-267,184 L-267,195 L-257,194 L-255,197 L-252,214 L-246,238 L-238,258 L-227,280 L-227,286 L-240,295 L-250,303 L-257,310 L-268,325 L-276,341 L-282,359 L-284,371 L-284,394 L-283,403 L-293,403 L-294,398 L-294,367 L-291,352 L-285,336 L-277,320 L-265,304 L-252,291 L-239,282 L-240,277 L-252,252 L-257,237 L-263,212 L-264,206 L-270,206 L-275,202 L-277,198 L-277,181 L-275,175 L-281,173 L-284,169 L-284,155 L-279,142 L-269,121 L-263,108 L-255,90 L-242,64 L-231,47 L-222,35 L-209,19 L-199,9 L-189,3 L-186,2 L-175,2 L-170,6 L-168,10 L-168,28 L-169,31 L-41,31 L-30,19 L-18,9 L-8,3 Z " fill="#010101" transform="translate(412,109)"/>
<path d="M0,0 L6,0 L7,2 L7,14 L6,24 L9,27 L14,28 L41,29 L40,34 L31,44 L22,50 L19,51 L-3,52 L-16,59 L-26,65 L-36,69 L-44,69 L-50,66 L-52,62 L-44,48 L-31,29 L-19,15 L-11,7 Z " fill="#727272" transform="translate(228,120)"/>
<path d="M0,0 L6,0 L9,3 L10,5 L10,25 L6,46 L3,68 L-7,67 L-27,58 L-39,50 L-51,39 L-56,34 L-64,33 L-64,32 L-38,31 L-36,27 L-26,17 L-12,6 Z " fill="#ED9A4B" transform="translate(414,118)"/>
<path d="M0,0 L10,0 L21,4 L27,9 L33,19 L36,29 L36,36 L-26,36 L-26,22 L-21,12 L-13,5 L-4,1 Z " fill="#EF9B4C" transform="translate(167,476)"/>
<path d="M0,0 L11,0 L20,4 L22,8 L21,15 L16,20 L14,21 L7,21 L7,56 L15,56 L37,61 L40,65 L38,70 L28,69 L15,66 L-13,66 L-38,72 L-44,74 L-49,74 L-51,72 L-50,67 L-35,61 L-14,56 L-3,56 L-2,21 L-11,20 L-16,17 L-18,13 L-17,8 L-12,4 L-4,1 Z " fill="#050504" transform="translate(267,228)"/>
<path d="M0,0 L5,1 L6,6 L3,17 L1,31 L6,33 L12,40 L15,47 L14,57 L12,63 L20,61 L30,52 L34,41 L38,25 L41,22 L46,23 L47,25 L46,35 L41,52 L35,61 L27,68 L19,72 L9,72 L1,68 L-4,62 L-7,55 L-9,43 L-9,32 L-6,13 L-2,2 Z " fill="#040404" transform="translate(328,427)"/>
<path d="M0,0 L21,0 L27,1 L27,15 L26,26 L3,26 L-7,23 L-14,17 L-15,8 L-10,3 Z " fill="#737372" transform="translate(383,343)"/>
<path d="M0,0 L11,0 L18,3 L21,7 L21,15 L17,21 L9,28 L-7,37 L-10,37 L-15,18 L-17,8 L-3,1 Z " fill="#EE9B4C" transform="translate(176,313)"/>
<path d="M0,0 L5,0 L9,8 L16,15 L20,23 L20,30 L17,34 L18,38 L23,48 L22,55 L18,60 L16,61 L8,61 L0,57 L-2,54 L-1,50 L0,49 L6,49 L9,51 L13,51 L11,46 L4,35 L5,30 L7,28 L11,28 L8,21 L0,11 L-2,7 L-2,2 Z " fill="#040404" transform="translate(372,228)"/>
<path d="M0,0 L22,0 L21,28 L20,24 L5,24 L-5,19 L-10,13 L-10,6 L-5,2 Z " fill="#727272" transform="translate(387,374)"/>
<path d="M0,0 L4,1 L16,6 L29,9 L53,9 L62,7 L67,7 L69,9 L69,14 L64,17 L53,19 L27,19 L12,15 L0,9 L-2,7 L-2,2 Z " fill="#040403" transform="translate(237,375)"/>
<path d="M0,0 L11,0 L16,5 L16,14 L10,22 L1,29 L-1,31 L-4,31 L-14,10 L-10,5 Z " fill="#EE9B4C" transform="translate(184,350)"/>
<path d="M0,0 L9,0 L14,5 L16,9 L16,19 L12,25 L8,28 L0,28 L-6,23 L-9,17 L-9,10 L-5,3 Z " fill="#EF9B4D" transform="translate(209,461)"/>
<path d="M0,0 L17,0 L17,20 L15,21 L3,21 L-5,18 L-10,13 L-10,6 L-5,2 Z " fill="#727272" transform="translate(394,316)"/>
<path d="M0,0 L5,2 L11,9 L14,16 L13,26 L11,32 L6,30 L2,25 L0,18 L-1,11 L-1,1 Z " fill="#717171" transform="translate(329,458)"/>
<path d="M0,0 L7,0 L12,5 L12,11 L8,17 L1,18 L-4,14 L-5,12 L-5,6 Z " fill="#747473" transform="translate(367,317)"/>
<path d="M0,0 L6,1 L10,5 L11,11 L8,16 L5,18 L-2,18 L-6,13 L-6,6 L-2,1 Z " fill="#020202" transform="translate(227,211)"/>
<path d="M0,0 L5,2 L5,7 L1,10 L-2,11 L-17,11 L-22,8 L-23,4 L-20,1 L-15,2 L-7,2 Z " fill="#040404" transform="translate(240,188)"/>
<path d="M0,0 L8,0 L13,5 L12,12 L8,16 L2,17 L-3,12 L-4,5 Z " fill="#020202" transform="translate(303,214)"/>
<path d="M0,0 L14,1 L21,0 L23,2 L23,7 L18,10 L8,11 L0,8 L-2,5 L-1,1 Z " fill="#040404" transform="translate(300,190)"/>
<path d="M0,0 L8,1 L7,4 L0,5 L-8,5 L-11,3 Z " fill="#D47A81" transform="translate(272,236)"/>
</svg>
