<?xml version="1.0" encoding="UTF-8"?>
<svg version="1.1" xmlns="http://www.w3.org/2000/svg" width="512" height="512">
<path d="M0,0 L12,0 L20,7 L25,19 L30,35 L32,54 L33,77 L34,145 L34,171 L33,250 L31,324 L28,399 L27,403 L-252,403 L-253,401 L-254,392 L-254,368 L-250,347 L-244,332 L-235,317 L-224,303 L-215,293 L-213,288 L-221,278 L-232,265 L-242,249 L-251,229 L-257,207 L-259,196 L-260,177 L-269,177 L-273,172 L-273,160 L-269,149 L-273,148 L-276,144 L-276,137 L-272,127 L-262,113 L-255,101 L-248,82 L-241,63 L-233,45 L-225,32 L-218,23 L-210,14 L-198,5 L-192,3 L-183,4 L-176,10 L-170,23 L-166,35 L-129,33 L-34,33 L-25,22 L-16,11 L-8,4 Z " fill="#FAF5E1" transform="translate(382,109)"/>
<path d="M0,0 L12,0 L20,7 L25,19 L30,35 L32,54 L33,77 L34,145 L34,171 L33,250 L31,324 L28,399 L27,403 L18,403 L19,368 L22,291 L4,291 L-6,286 L-10,281 L-11,276 L-8,271 L-1,268 L5,267 L23,267 L23,262 L17,263 L-7,263 L-18,259 L-23,255 L-25,252 L-25,245 L-21,240 L-12,237 L23,237 L23,230 L5,230 L-3,226 L-6,221 L-5,216 L1,211 L9,210 L24,210 L23,84 L22,54 L20,38 L15,21 L10,11 L9,10 L2,10 L-6,16 L-9,17 L-11,21 L-20,31 L-29,42 L-31,43 L-145,43 L-144,48 L-151,58 L-156,62 L-162,65 L-167,66 L-186,67 L-196,71 L-204,78 L-218,92 L-225,95 L-236,95 L-241,94 L-249,112 L-260,128 L-265,136 L-266,141 L-261,142 L-257,146 L-259,152 L-263,162 L-264,168 L-259,166 L-253,166 L-251,168 L-249,193 L-244,216 L-239,231 L-231,248 L-222,261 L-213,271 L-203,284 L-202,285 L-203,292 L-211,303 L-223,318 L-232,332 L-239,347 L-242,358 L-244,372 L-244,387 L-243,403 L-252,403 L-253,401 L-254,392 L-254,368 L-250,347 L-244,332 L-235,317 L-224,303 L-215,293 L-213,288 L-221,278 L-232,265 L-242,249 L-251,229 L-257,207 L-259,196 L-260,177 L-269,177 L-273,172 L-273,160 L-269,149 L-273,148 L-276,144 L-276,137 L-272,127 L-262,113 L-255,101 L-248,82 L-241,63 L-233,45 L-225,32 L-218,23 L-210,14 L-198,5 L-192,3 L-183,4 L-176,10 L-170,23 L-166,35 L-129,33 L-34,33 L-25,22 L-16,11 L-8,4 Z " fill="#010101" transform="translate(382,109)"/>
<path d="M0,0 L6,0 L11,8 L19,29 L20,30 L47,31 L48,35 L41,45 L36,49 L30,52 L25,53 L6,54 L-4,58 L-12,65 L-26,79 L-33,82 L-44,82 L-49,80 L-46,69 L-40,53 L-34,38 L-27,26 L-19,16 L-7,4 Z " fill="#717171" transform="translate(190,122)"/>
<path d="M0,0 L7,0 L11,5 L16,18 L20,33 L21,45 L21,75 L8,73 L-12,66 L-30,56 L-43,46 L-54,35 L-54,34 L-33,33 L-28,28 L-19,18 L-11,8 Z " fill="#EE9A4C" transform="translate(384,118)"/>
<path d="M0,0 L9,1 L18,7 L24,16 L29,32 L30,44 L-29,44 L-29,32 L-25,21 L-19,12 L-11,5 L-4,1 Z " fill="#EF9B4C" transform="translate(186,468)"/>
<path d="M0,0 L15,0 L22,3 L24,6 L24,14 L19,19 L13,21 L9,21 L9,63 L50,62 L53,64 L53,69 L48,72 L-38,72 L-42,69 L-41,64 L-39,63 L0,63 L0,34 L1,21 L-7,20 L-14,16 L-15,9 L-11,4 Z " fill="#020202" transform="translate(249,229)"/>
<path d="M0,0 L5,1 L6,6 L5,34 L10,36 L17,44 L19,50 L19,61 L27,58 L31,54 L34,46 L35,40 L35,4 L41,3 L44,7 L45,15 L45,40 L43,51 L38,61 L30,68 L23,70 L14,69 L7,65 L1,58 L-3,47 L-4,40 L-4,19 L-3,5 Z " fill="#020202" transform="translate(328,426)"/>
<path d="M0,0 L10,0 L19,3 L24,8 L25,15 L20,23 L12,29 L-2,36 L-15,41 L-21,20 L-23,8 L-12,3 Z " fill="#EE9B4D" transform="translate(156,297)"/>
<path d="M0,0 L35,0 L35,25 L29,26 L5,26 L-6,22 L-11,18 L-13,15 L-13,8 L-9,3 Z " fill="#727272" transform="translate(370,346)"/>
<path d="M0,0 L10,1 L16,5 L18,8 L18,14 L11,22 L0,30 L-3,32 L-7,31 L-15,18 L-19,9 L-7,2 Z " fill="#EE9B4D" transform="translate(163,335)"/>
<path d="M0,0 L5,1 L9,9 L17,18 L19,22 L19,32 L17,35 L15,35 L22,47 L22,55 L17,61 L9,62 L0,58 L-2,55 L-1,50 L4,49 L10,52 L12,52 L11,47 L4,36 L4,31 L9,28 L8,22 L0,12 L-2,8 L-2,2 Z " fill="#040303" transform="translate(357,228)"/>
<path d="M0,0 L18,0 L18,19 L17,24 L-1,24 L-11,19 L-15,14 L-16,9 L-13,4 L-6,1 Z " fill="#727272" transform="translate(387,376)"/>
<path d="M0,0 L15,0 L15,27 L14,27 L14,20 L-4,20 L-12,16 L-15,11 L-14,6 L-8,1 Z " fill="#737373" transform="translate(391,319)"/>
<path d="M0,0 L11,0 L16,4 L19,11 L19,17 L15,23 L12,25 L4,25 L-1,21 L-5,13 L-5,6 Z " fill="#EF9C4D" transform="translate(218,459)"/>
<path d="M0,0 L6,0 L12,5 L13,12 L9,17 L7,18 L-1,18 L-6,13 L-5,4 Z " fill="#737373" transform="translate(360,320)"/>
<path d="M0,0 L7,0 L12,6 L12,12 L8,17 L6,18 L0,18 L-4,14 L-5,7 L-2,2 Z " fill="#030303" transform="translate(210,212)"/>
<path d="M0,0 L9,1 L12,4 L13,10 L10,15 L7,17 L0,17 L-4,12 L-4,4 Z " fill="#040404" transform="translate(288,214)"/>
<path d="M0,0 L5,2 L12,10 L14,16 L14,27 L9,25 L3,18 L1,13 Z " fill="#717171" transform="translate(333,460)"/>
<path d="M0,0 L19,0 L21,5 L18,8 L-1,8 L-2,7 L-2,2 Z " fill="#020202" transform="translate(206,190)"/>
<path d="M0,0 L11,0 L13,2 L12,7 L9,9 L-6,9 L-8,7 L-7,3 L-5,1 Z " fill="#060605" transform="translate(294,189)"/>
<path d="M0,0 L9,0 L10,3 L8,4 L-7,4 L-7,2 Z " fill="#E08188" transform="translate(254,237)"/>
</svg>
