<?xml version="1.0" encoding="UTF-8"?>
<svg version="1.1" xmlns="http://www.w3.org/2000/svg" width="512" height="512">
<path d="M0,0 L10,0 L18,4 L24,11 L31,25 L34,34 L100,36 L124,37 L172,38 L175,27 L182,13 L187,7 L194,3 L196,2 L205,2 L211,6 L219,15 L226,27 L232,42 L235,51 L245,82 L254,134 L263,198 L266,216 L268,237 L269,366 L270,407 L-5,407 L-8,389 L-8,364 L-5,344 L1,324 L8,308 L14,298 L17,293 L7,286 L-6,277 L-18,266 L-25,259 L-37,242 L-47,223 L-55,197 L-56,190 L-65,190 L-72,182 L-73,171 L-71,162 L-68,155 L-73,150 L-75,145 L-75,130 L-71,118 L-63,102 L-55,86 L-45,68 L-35,53 L-30,41 L-23,24 L-16,13 L-5,2 Z " fill="#FAF5E1" transform="translate(151,105)"/>
<path d="M0,0 L10,0 L18,4 L24,11 L31,25 L34,34 L100,36 L124,37 L172,38 L175,27 L182,13 L187,7 L194,3 L196,2 L205,2 L211,6 L219,15 L226,27 L232,42 L235,51 L245,82 L254,134 L263,198 L266,216 L268,237 L269,366 L270,407 L260,407 L259,377 L258,296 L243,296 L232,293 L227,289 L225,286 L225,279 L229,275 L237,272 L245,271 L259,271 L259,263 L251,265 L230,265 L218,261 L211,255 L210,246 L213,241 L220,237 L235,234 L258,234 L257,227 L237,227 L230,223 L229,221 L229,214 L233,209 L242,205 L246,204 L254,204 L251,187 L244,138 L236,89 L231,72 L225,52 L216,30 L207,16 L202,12 L196,13 L191,18 L183,34 L179,46 L177,47 L114,47 L62,45 L54,44 L52,49 L44,59 L35,65 L29,67 L10,69 L-1,73 L-10,79 L-22,91 L-27,97 L-34,102 L-37,103 L-48,103 L-52,101 L-54,107 L-62,123 L-65,133 L-65,141 L-64,145 L-57,148 L-56,154 L-62,168 L-62,178 L-61,180 L-52,179 L-49,182 L-39,215 L-30,234 L-19,250 L-8,262 L4,272 L28,288 L30,290 L29,295 L23,302 L14,319 L7,339 L3,358 L2,368 L2,387 L5,407 L-5,407 L-8,389 L-8,364 L-5,344 L1,324 L8,308 L14,298 L17,293 L7,286 L-6,277 L-18,266 L-25,259 L-37,242 L-47,223 L-55,197 L-56,190 L-65,190 L-72,182 L-73,171 L-71,162 L-68,155 L-73,150 L-75,145 L-75,130 L-71,118 L-63,102 L-55,86 L-45,68 L-35,53 L-30,41 L-23,24 L-16,13 L-5,2 Z " fill="#010101" transform="translate(151,105)"/>
<path d="M0,0 L7,1 L15,10 L24,31 L28,33 L51,35 L49,40 L41,50 L32,56 L26,58 L7,60 L-4,64 L-13,70 L-25,82 L-30,88 L-37,93 L-40,94 L-51,94 L-54,92 L-52,86 L-42,67 L-32,52 L-27,41 L-23,29 L-14,13 L-4,2 Z " fill="#717171" transform="translate(154,114)"/>
<path d="M0,0 L6,1 L13,9 L21,23 L31,50 L37,70 L39,79 L23,79 L8,75 L-8,68 L-20,61 L-33,51 L-41,43 L-45,38 L-56,37 L-56,36 L-19,35 L-17,25 L-9,8 L-5,3 Z " fill="#ED9A4C" transform="translate(349,116)"/>
<path d="M0,0 L7,0 L17,3 L20,7 L20,14 L15,20 L5,22 L5,63 L36,59 L47,57 L50,60 L49,65 L41,68 L25,71 L14,72 L-5,72 L-27,69 L-39,66 L-42,64 L-42,59 L-40,57 L-28,59 L-4,62 L-4,31 L-3,22 L-11,21 L-18,17 L-19,15 L-19,9 L-15,5 L-5,1 Z " fill="#040403" transform="translate(217,228)"/>
<path d="M0,0 L7,0 L17,3 L25,9 L31,16 L36,29 L37,35 L-29,35 L-28,28 L-23,18 L-16,9 L-9,3 Z " fill="#EF9B4C" transform="translate(193,477)"/>
<path d="M0,0 L5,0 L7,5 L7,15 L10,28 L10,31 L19,32 L26,38 L30,47 L30,57 L29,59 L39,57 L44,52 L44,44 L39,21 L38,13 L39,12 L45,12 L48,17 L54,42 L54,53 L51,59 L46,64 L39,68 L27,68 L19,63 L11,54 L3,38 L-1,25 L-2,19 L-2,3 Z " fill="#030303" transform="translate(323,426)"/>
<path d="M0,0 L23,0 L24,8 L24,29 L16,31 L-5,31 L-17,27 L-24,21 L-25,12 L-22,7 L-15,3 Z " fill="#727272" transform="translate(386,339)"/>
<path d="M0,0 L8,0 L17,3 L21,7 L22,16 L16,25 L5,32 L-10,41 L-13,37 L-20,21 L-23,10 L-14,4 L-5,1 Z " fill="#EE9B4C" transform="translate(130,296)"/>
<path d="M0,0 L13,0 L18,3 L21,7 L21,16 L15,25 L8,33 L4,35 L-8,23 L-17,11 L-15,7 L-3,1 Z " fill="#EE9A4C" transform="translate(142,336)"/>
<path d="M0,0 L14,0 L14,30 L13,30 L13,25 L-2,25 L-13,22 L-18,18 L-20,15 L-20,8 L-16,4 L-8,1 Z " fill="#737372" transform="translate(396,376)"/>
<path d="M0,0 L6,1 L10,9 L18,18 L20,23 L20,31 L17,35 L19,40 L23,48 L23,54 L20,59 L17,61 L7,61 L-1,56 L-1,50 L0,49 L6,49 L9,51 L14,52 L9,42 L5,36 L5,30 L8,28 L11,28 L8,21 L0,11 L-2,6 L-1,1 Z " fill="#040403" transform="translate(320,228)"/>
<path d="M0,0 L8,0 L9,1 L11,14 L11,23 L-9,23 L-16,19 L-17,17 L-17,10 L-13,5 L-4,1 Z " fill="#727272" transform="translate(397,309)"/>
<path d="M0,0 L7,1 L12,6 L13,8 L13,19 L10,24 L2,28 L-5,27 L-10,22 L-11,20 L-11,12 L-6,4 Z " fill="#EF9C4D" transform="translate(238,466)"/>
<path d="M0,0 L8,1 L15,7 L19,16 L19,26 L15,26 L8,19 L0,3 Z " fill="#727271" transform="translate(334,457)"/>
<path d="M0,0 L6,0 L11,5 L12,12 L9,18 L7,19 L0,19 L-5,13 L-5,5 Z " fill="#747474" transform="translate(360,316)"/>
<path d="M0,0 L6,1 L11,7 L10,14 L6,18 L0,19 L-5,15 L-6,13 L-6,7 L-3,2 Z " fill="#040404" transform="translate(175,211)"/>
<path d="M0,0 L7,0 L12,4 L12,11 L8,16 L1,17 L-4,12 L-5,6 L-2,1 Z " fill="#040403" transform="translate(252,214)"/>
<path d="M0,0 L7,0 L15,3 L16,4 L16,9 L14,11 L8,10 L-6,10 L-7,9 L-7,4 L-3,1 Z " fill="#060605" transform="translate(174,188)"/>
<path d="M0,0 L12,0 L17,2 L19,4 L18,9 L17,10 L1,9 L-4,9 L-5,8 L-5,3 Z " fill="#020201" transform="translate(251,188)"/>
<path d="M0,0 L11,0 L11,3 L9,4 L-5,4 L-6,2 Z " fill="#DA7E85" transform="translate(216,237)"/>
</svg>
